<svg
  xmlns="http://www.w3.org/2000/svg"
  width="50"
  height="50"
  viewBox="0 0 256 256"
>
  <path
    d="M37 4H13c-4.962 0-9 4.037-9 9v24c0 4.963 4.038 9 9 9h24c4.962 0 9-4.037 9-9V13c0-4.963-4.038-9-9-9zm-2.228 25.527c-.95.745-1.795 1.109-2.082 1.218l-5.35 2.204a.118.118 0 0 0-.055.168l.75 1.15c.268.427.373.832.373 1.309 0 1.736-1.523 2.15-2.313 2.15-1.305 0-1.827-.891-2.259-1.577l-2.786-4.4a.888.888 0 0 1 .414-1.295l9.577-3.941c.609-.241 2.595-1.268 2.595-4.354 0-2.613-2.273-5.568-6.136-5.568-1.477 0-3.409.795-3.409.795l-5.954 2.441c-1.773.732-1.773 1.404-1.773 1.764 0 .018.086 1.591 2.045 1.591.2 0 .805-.091 1.636-.432l5.909-2.445c1.227-.505 3.136.15 3.136 2.023 0 1.027-.595 1.395-1.495 1.763l-3.677 1.518-2.145.886c-1.214.5-2.636.777-3.591.777-3.863 0-6.363-2.663-6.363-5.681 0-1.859.795-4.404 4.591-5.963l2.059-.845c.859-.359 2.077-.859 3.804-1.573.559-.232 1.123-.464 1.859-.641.745-.177 1.659-.295 2.913-.295 7.272 0 11.136 5.454 11.136 9.886 0 3.863-1.841 6.131-3.409 7.367z"
    font-family="none"
    font-size="none"
    font-weight="none"
    style="mix-blend-mode: normal"
    text-anchor="none"
    transform="translate(-20.48 -20.48) scale(5.9392)"
  />
</svg>
